<?xml version="1.0" encoding="utf-8"?>
<!-- Generator: Adobe Illustrator 24.1.0, SVG Export Plug-In . SVG Version: 6.00 Build 0)  -->
<svg version="1.1" id="Layer_1" xmlns="http://www.w3.org/2000/svg" xmlns:xlink="http://www.w3.org/1999/xlink" x="0px" y="0px"
	 viewBox="0 0 212.9 119.7" style="enable-background:new 0 0 212.9 119.7;" xml:space="preserve">
<style type="text/css">
	.st0{fill:#2E2B33;}
</style>
<path class="st0" d="M52.5,119.7c-0.2,0-0.4,0-0.7-0.1c-2.2-0.4-3.7-2.5-3.4-4.7l6.7-40.4C32.2,88,18.9,103.4,7.3,118.1
	c-1.3,1.7-3.8,2.1-5.5,0.8c-1.8-1.2-2.3-3.6-1.2-5.5L67.3,2c1-1.7,3.1-2.4,4.9-1.7C74,1,75.1,2.9,74.8,4.8l-9,55
	c16.6-6.9,38.7-10.7,62.1-10.7l0,0c12.9,0,25.2,1.2,36.2,3.5l-7.7-47.7c-0.4-2.2,1.2-4.3,3.4-4.7c2.2-0.4,4.3,1.2,4.7,3.4l8.3,51.1
	c8.4,2.3,15.8,5.3,21.8,8.9c11.9,7.2,18.3,16.8,18.3,27.8c0,15.6-12.7,28.3-28.3,28.3h-6.1c-2,0-3.7-1.5-4-3.4l-8.9-55
	c-11.1-2.6-24-3.9-37.6-3.9l0,0c-24.7,0-47.7,4.4-63.6,12.2l-7.7,46.7C56.2,118.3,54.5,119.7,52.5,119.7z M181.9,111.5h2.6
	c11.1,0,20.1-9,20.1-20.1c0-8.1-4.9-15.1-14.4-20.8c-4.5-2.7-10-5.1-16.1-7L181.9,111.5z M63.3,24.7L27.8,84
	c7.9-6.8,17.4-13.6,29-19.9L63.3,24.7z"/>
</svg>
