<?xml version="1.0" encoding="utf-8"?>
<!-- Generator: Adobe Illustrator 24.1.0, SVG Export Plug-In . SVG Version: 6.00 Build 0)  -->
<svg version="1.1" id="Layer_1" xmlns="http://www.w3.org/2000/svg" xmlns:xlink="http://www.w3.org/1999/xlink" x="0px" y="0px"
	 viewBox="0 0 300 300" enable-background="new 0 0 300 300" xml:space="preserve">
<path fill="#FFFFFF" d="M111,160.2c-0.2,0-0.3,0-0.5,0c-1.6-0.3-2.7-1.8-2.5-3.4l4.9-29.5C96.2,137,86.5,148.3,78.1,159
	c-1,1.2-2.7,1.5-4,0.6c-1.3-0.9-1.7-2.6-0.9-4l48.6-81.2c0.7-1.2,2.2-1.8,3.6-1.3c1.3,0.5,2.1,1.9,1.9,3.3l-6.6,40.1
	c12.1-5,28.2-7.8,45.3-7.8c0,0,0,0,0,0c9.4,0,18.4,0.9,26.4,2.5l-5.7-34.8c-0.3-1.6,0.8-3.2,2.5-3.4c1.6-0.3,3.2,0.8,3.4,2.5l6,37.3
	c6.1,1.7,11.5,3.9,15.9,6.5c8.7,5.3,13.3,12.3,13.4,20.3c0,11.4-9.2,20.6-20.6,20.6h-4.5c-1.5,0-2.7-1.1-2.9-2.5l-6.5-40.1
	c-8.1-1.9-17.5-2.9-27.4-2.9c0,0,0,0,0,0c-18,0-34.8,3.2-46.4,8.9l-5.6,34.1C113.7,159.1,112.5,160.2,111,160.2z M205.4,154.2h1.9
	c8.1,0,14.7-6.6,14.7-14.7c0-5.9-3.5-11-10.5-15.2c-3.3-2-7.3-3.7-11.8-5.1L205.4,154.2z M118.9,90.9L93,134.2
	c5.7-4.9,12.7-9.9,21.2-14.5L118.9,90.9z M174.4,208.8c-1.3,0-2.5-0.3-3.6-0.8c-1-0.5-1.9-1.3-2.5-2.4h-0.1v2.5h-6.1v-27.9h6.4v10.2
	h0.1c0.6-0.9,1.4-1.5,2.3-2.1c0.9-0.5,2-0.8,3.4-0.8c1.3,0,2.5,0.3,3.5,0.8c1.1,0.5,2,1.3,2.7,2.2c0.7,1,1.3,2.1,1.7,3.4
	c0.4,1.3,0.6,2.7,0.6,4.2c0,1.7-0.2,3.2-0.6,4.5c-0.4,1.3-1,2.4-1.7,3.3c-0.7,0.9-1.6,1.6-2.7,2.1
	C176.8,208.5,175.7,208.8,174.4,208.8z M172.6,203.7c1.3,0,2.2-0.5,2.9-1.5c0.7-1,1-2.4,1-4.1c0-1.7-0.3-3.1-1-4.1
	c-0.7-1-1.6-1.6-3-1.6c-1.4,0-2.5,0.5-3.1,1.6c-0.7,1.1-1,2.5-1,4.1c0,1.7,0.4,3,1.1,4C170.2,203.2,171.3,203.7,172.6,203.7z
	 M185.1,188.1h6.1v3.1h0.1c0.7-1.2,1.5-2.1,2.3-2.6c0.9-0.5,1.9-0.8,3.1-0.8c0.6,0,1,0.1,1.3,0.2v5.5h-0.2c-2-0.3-3.5,0-4.7,1
	c-1.2,1-1.7,2.5-1.7,4.7v9h-6.4V188.1z M200,188.1h6.4v20H200V188.1z M217.3,208.8c-1.3,0-2.4-0.2-3.5-0.7s-2-1.2-2.8-2.1
	c-0.8-0.9-1.4-2-1.8-3.3c-0.4-1.3-0.6-2.8-0.6-4.5c0-1.6,0.2-3,0.6-4.3c0.4-1.3,1-2.4,1.8-3.3c0.8-0.9,1.7-1.6,2.8-2.2
	c1.1-0.5,2.3-0.8,3.6-0.8c1.4,0,2.5,0.3,3.4,0.8c0.9,0.5,1.6,1.2,2.2,2.1h0.1v-10.2h6.4v27.9h-6.1v-2.7h-0.1c-0.6,1-1.4,1.9-2.4,2.4
	C219.8,208.5,218.7,208.8,217.3,208.8z M219,203.7c1.3,0,2.4-0.5,3.1-1.6c0.7-1,1.1-2.4,1.1-4c0-0.8-0.1-1.6-0.3-2.3
	c-0.2-0.7-0.4-1.3-0.8-1.8c-0.4-0.5-0.8-0.9-1.3-1.2c-0.5-0.3-1.1-0.4-1.8-0.4c-1.3,0-2.3,0.5-3,1.6c-0.7,1.1-1.1,2.4-1.1,4.1
	c0,1.7,0.3,3.1,1,4.1C216.7,203.2,217.7,203.7,219,203.7z M241.8,215.1c-2.8,0-5-0.5-6.7-1.6c-1.7-1.1-2.7-2.7-3.1-4.8h6.2
	c0.2,0.5,0.5,1,1.1,1.4c0.5,0.4,1.4,0.6,2.4,0.6c1.4,0,2.3-0.3,2.9-1c0.6-0.7,0.9-1.6,0.9-2.8v-2h-0.2c-0.6,0.7-1.3,1.2-2.1,1.7
	c-0.8,0.4-1.8,0.6-3,0.6c-1.1,0-2.2-0.2-3.2-0.6c-1-0.4-2-1-2.8-1.8c-0.8-0.8-1.5-1.8-1.9-3c-0.5-1.2-0.7-2.5-0.7-4.1
	c0-1.5,0.2-2.8,0.6-4c0.4-1.2,1-2.3,1.7-3.2c0.7-0.9,1.6-1.6,2.7-2.1c1-0.5,2.2-0.7,3.4-0.7c1.3,0,2.4,0.2,3.4,0.7
	c0.9,0.5,1.7,1.2,2.3,2h0.1v-2.1h6.1v18.1c0,1.5-0.2,2.8-0.7,3.9c-0.5,1.1-1.1,2-1.9,2.7c-0.9,0.8-2,1.3-3.2,1.7
	C244.6,214.9,243.2,215.1,241.8,215.1z M241.7,202.3c1.4,0,2.4-0.5,3.1-1.4c0.7-1,1-2.1,1-3.6c0-0.7-0.1-1.3-0.3-1.9
	c-0.2-0.6-0.4-1.1-0.8-1.6c-0.4-0.5-0.8-0.8-1.3-1.1s-1.1-0.4-1.7-0.4c-1.2,0-2.2,0.5-2.9,1.3c-0.7,0.9-1.1,2.1-1.1,3.7
	c0,1.5,0.4,2.7,1.1,3.6C239.6,201.9,240.5,202.3,241.7,202.3z M264.6,208.7c-1.6,0-3.1-0.3-4.5-0.8c-1.3-0.5-2.5-1.3-3.4-2.2
	c-0.9-1-1.6-2.1-2.1-3.4c-0.5-1.3-0.7-2.7-0.7-4.2c0-1.5,0.2-2.9,0.7-4.2c0.5-1.3,1.2-2.4,2.1-3.4c0.9-1,2-1.7,3.2-2.2
	c1.3-0.5,2.6-0.8,4.2-0.8c1.4,0,2.7,0.2,3.8,0.7c1.1,0.4,2.1,1.1,3,1.8c1.2,1.1,2.1,2.5,2.7,4.2c0.6,1.7,0.9,3.5,0.8,5.6h-14.4
	c0.2,1.4,0.7,2.4,1.4,3.2c0.7,0.8,1.8,1.2,3.1,1.2c0.8,0,1.5-0.2,2.1-0.5c0.5-0.4,1-0.8,1.3-1.5h6.2c-0.2,0.9-0.6,1.8-1.2,2.6
	s-1.3,1.5-2.2,2.1c-0.8,0.6-1.8,1.1-2.8,1.4C267,208.6,265.9,208.7,264.6,208.7z M268.1,196c-0.1-1.2-0.5-2.1-1.2-2.9
	c-0.7-0.7-1.5-1.1-2.6-1.1c-1.2,0-2.2,0.4-2.8,1.1c-0.7,0.7-1.1,1.7-1.3,2.9H268.1z M203.2,179.6c1.8,0,3.2,1.4,3.2,3.2
	c0,1.7-1.4,3.2-3.2,3.2c-1.8,0-3.2-1.4-3.2-3.2C200,181,201.5,179.6,203.2,179.6z M36.5,180.2h7.1l10.1,27.9h-7.3l-1.6-5H35l-1.6,5
	h-7L36.5,180.2z M43.2,198.1l-2.1-6.8c-0.1-0.4-0.3-0.8-0.4-1.2c-0.1-0.4-0.2-0.9-0.4-1.3c-0.1-0.5-0.2-1-0.4-1.4h-0.1
	c-0.1,0.5-0.3,1-0.4,1.4c-0.1,0.4-0.3,0.8-0.4,1.3c-0.1,0.4-0.2,0.8-0.4,1.2l-2.1,6.8H43.2z M64,208.8c-1.6,0-3.1-0.3-4.4-0.8
	s-2.4-1.3-3.3-2.2c-0.9-1-1.6-2.1-2.1-3.4c-0.5-1.3-0.8-2.7-0.8-4.2s0.2-2.9,0.7-4.2c0.5-1.3,1.2-2.4,2.1-3.4c0.9-1,2-1.7,3.3-2.2
	s2.7-0.8,4.3-0.8c1.4,0,2.6,0.2,3.7,0.6c1.1,0.4,2.1,0.9,2.9,1.6c0.8,0.7,1.5,1.5,2,2.4c0.5,0.9,0.8,2,1,3.1h-6.1
	c-0.2-0.9-0.6-1.6-1.1-2.2c-0.5-0.5-1.3-0.8-2.2-0.8c-1.4,0-2.4,0.5-3.1,1.6c-0.7,1.1-1,2.5-1,4.3c0,1.8,0.3,3.2,1,4.3
	s1.7,1.6,3.1,1.6c2,0,3.2-1.1,3.5-3.4h6.1c-0.1,1.1-0.3,2.2-0.8,3.2c-0.5,1-1.1,1.9-1.9,2.6c-0.8,0.7-1.8,1.3-3,1.7
	C66.7,208.6,65.4,208.8,64,208.8z M83.5,208.4c-0.9,0-1.8-0.1-2.6-0.3c-0.8-0.2-1.4-0.5-2-0.9c-0.6-0.4-1-1-1.3-1.7
	c-0.3-0.7-0.5-1.6-0.5-2.7v-10.7h-2.7v-4h2.7v-6.3h6.2v6.3h3.6v4h-3.6v9.4c0,0.8,0.2,1.3,0.6,1.6c0.4,0.3,0.9,0.4,1.6,0.4
	c0.3,0,0.6,0,0.8,0c0.3,0,0.5,0,0.6,0v4.7c-0.3,0.1-0.7,0.2-1.3,0.2C85,208.3,84.3,208.4,83.5,208.4z M89.2,188.1h6.4v20h-6.4V188.1
	z M97,188.1h6.6l2.7,9c0.1,0.5,0.3,1,0.4,1.5c0.1,0.5,0.3,0.9,0.4,1.3c0.1,0.4,0.2,0.9,0.3,1.3h0.1c0.1-0.4,0.2-0.8,0.3-1.3
	c0.1-0.4,0.2-0.8,0.4-1.3c0.1-0.5,0.3-1,0.4-1.5l2.8-9h6.4l-6.9,20h-6.9L97,188.1z M128.1,208.7c-1.6,0-3.1-0.3-4.5-0.8
	c-1.3-0.5-2.5-1.3-3.4-2.2c-0.9-1-1.6-2.1-2.1-3.4c-0.5-1.3-0.7-2.7-0.7-4.2c0-1.5,0.2-2.9,0.7-4.2c0.5-1.3,1.2-2.4,2.1-3.4
	c0.9-1,2-1.7,3.2-2.2c1.3-0.5,2.6-0.8,4.2-0.8c1.4,0,2.7,0.2,3.8,0.7c1.1,0.4,2.1,1.1,3,1.8c1.2,1.1,2.1,2.5,2.7,4.2
	c0.6,1.7,0.9,3.5,0.8,5.6h-14.4c0.2,1.4,0.7,2.4,1.4,3.2c0.7,0.8,1.8,1.2,3.1,1.2c0.8,0,1.5-0.2,2.1-0.5c0.5-0.4,1-0.8,1.3-1.5h6.2
	c-0.2,0.9-0.6,1.8-1.2,2.6s-1.3,1.5-2.2,2.1c-0.8,0.6-1.8,1.1-2.8,1.4C130.6,208.6,129.4,208.7,128.1,208.7z M131.7,196
	c-0.1-1.2-0.5-2.1-1.2-2.9c-0.7-0.7-1.5-1.1-2.6-1.1c-1.2,0-2.2,0.4-2.8,1.1c-0.7,0.7-1.1,1.7-1.3,2.9H131.7z M92.4,179.6
	c1.8,0,3.2,1.4,3.2,3.2c0,1.7-1.4,3.2-3.2,3.2c-1.8,0-3.2-1.4-3.2-3.2C89.2,181,90.7,179.6,92.4,179.6z M146,190.1
	c1.8,0,3.2,1.4,3.2,3.2c0,1.7-1.4,3.2-3.2,3.2c-1.8,0-3.2-1.4-3.2-3.2C142.8,191.6,144.2,190.1,146,190.1z M154.3,190.1
	c1.8,0,3.2,1.4,3.2,3.2c0,1.7-1.4,3.2-3.2,3.2c-1.8,0-3.2-1.4-3.2-3.2C151.1,191.6,152.5,190.1,154.3,190.1z M146,198.4
	c1.8,0,3.2,1.4,3.2,3.2c0,1.7-1.4,3.2-3.2,3.2c-1.8,0-3.2-1.4-3.2-3.2C142.8,199.9,144.2,198.4,146,198.4z M154.3,198.4
	c1.8,0,3.2,1.4,3.2,3.2c0,1.7-1.4,3.2-3.2,3.2c-1.8,0-3.2-1.4-3.2-3.2C151.1,199.9,152.5,198.4,154.3,198.4z"/>
</svg>
