<?xml version="1.0" encoding="utf-8"?>
<!-- Generator: Adobe Illustrator 24.1.0, SVG Export Plug-In . SVG Version: 6.00 Build 0)  -->
<svg version="1.1" id="Layer_1" xmlns="http://www.w3.org/2000/svg" xmlns:xlink="http://www.w3.org/1999/xlink" x="0px" y="0px"
	 viewBox="0 0 300 300" enable-background="new 0 0 300 300" xml:space="preserve">
<path fill="#FFFFFF" d="M96.2,205.1c-0.2,0-0.4,0-0.7-0.1c-2.2-0.4-3.7-2.5-3.4-4.7l6.6-40.4c-22.9,13.4-36.1,28.8-47.7,43.6
	c-1.3,1.7-3.7,2.1-5.5,0.8c-1.8-1.2-2.3-3.6-1.2-5.5l66.5-111.2c1-1.7,3.1-2.4,4.9-1.7c1.8,0.7,2.9,2.6,2.6,4.5l-9,54.9
	c16.6-6.8,38.6-10.7,61.9-10.7c0,0,0,0,0,0c12.9,0,25.2,1.2,36.1,3.4l-7.7-47.6c-0.4-2.2,1.1-4.3,3.4-4.7c2.2-0.4,4.3,1.1,4.7,3.4
	l8.3,51c8.4,2.3,15.8,5.3,21.8,8.9c11.9,7.2,18.2,16.8,18.3,27.7c0,15.6-12.7,28.2-28.2,28.2h-6.1c-2,0-3.7-1.5-4-3.4l-8.9-54.9
	c-11.1-2.5-23.9-3.9-37.5-3.9c0,0,0,0,0,0c-24.6,0-47.6,4.4-63.5,12.2l-7.7,46.6C99.8,203.6,98.1,205.1,96.2,205.1z M225.4,196.9
	h2.6c11.1,0,20.1-9,20.1-20.1c0-8.1-4.9-15-14.3-20.8c-4.5-2.7-10-5.1-16.1-7L225.4,196.9z M106.9,110.3l-35.4,59.2
	c7.9-6.8,17.4-13.6,29-19.8L106.9,110.3z"/>
</svg>
