<?xml version="1.0" encoding="utf-8"?>
<!-- Generator: Adobe Illustrator 24.1.0, SVG Export Plug-In . SVG Version: 6.00 Build 0)  -->
<svg version="1.1" id="Layer_1" xmlns="http://www.w3.org/2000/svg" xmlns:xlink="http://www.w3.org/1999/xlink" x="0px" y="0px"
	 viewBox="0 0 153.2 86.1" enable-background="new 0 0 153.2 86.1" xml:space="preserve">
<path fill="#FFFFFF" d="M37.3,86.1c-1.9-0.4-2.7-1.8-2.5-3.4l4.8-29.1C23.1,63.2,13.6,74.3,5.3,85c-0.9,1.2-2.7,1.5-4,0.6
	c-1.3-0.9-1.7-2.6-0.9-4l48-80.2c0.7-1.2,2.2-1.7,3.5-1.2c1.3,0.5,2.1,1.9,1.9,3.2L47.3,43c12-4.9,27.8-7.7,44.6-7.7l0,0
	c9.3,0,18.2,0.9,26,2.5l-5.6-34.3c-0.3-1.6,0.8-3.1,2.5-3.4c1.6-0.3,3.1,0.8,3.4,2.5l6,36.8c6.1,1.7,11.4,3.8,15.7,6.4
	c8.6,5.2,13.1,12.1,13.2,20c0,11.3-9.1,20.5-20.3,20.5h-4.4c-1.4,0-2.7-1.1-2.9-2.5L119.1,44c-8-1.8-17.2-2.8-27-2.8l0,0
	c-17.7,0-34.3,3.2-45.8,8.8l-5.6,33.6C40.4,85.1,38.9,86.4,37.3,86.1z M131,80.2h1.9c8,0,14.5-6.5,14.5-14.5c0-5.8-3.5-10.8-10.3-15
	c-3.2-1.9-7.2-3.7-11.6-5L131,80.2z M45.6,17.8L20,60.5c5.7-4.9,12.5-9.8,20.9-14.3L45.6,17.8z"/>
</svg>
